<svg width="32" height="32" viewBox="0 0 512 512" fill="none" xmlns="http://www.w3.org/2000/svg">
  <rect width="512" height="512" rx="112" fill="#4B0081"/>
  <path d="M156.618 275.29L168.484 250.106C169.261 248.458 170.442 247.246 172.442 247.248L236.584 247.358C238.69 247.36 240.218 250.364 240.218 252.16L240.226 277.314C240.226 284.868 238.294 291.926 235.138 298.75C220.088 331.318 181.931 344.87 147.922 339.374C129.961 336.472 113.689 327.614 101.247 314.462C92.911 305.648 86.8152 295.374 82.8272 284.116C69.9906 247.89 82.4674 207.352 113.686 184.906C128.165 174.493 145.825 169.337 163.807 169.439C187.939 169.578 210.12 179.917 225.8 198.024C226.122 198.397 226.486 198.672 226.492 199.12C226.5 199.596 226.252 200.046 225.728 200.438L202.558 217.558C201.156 218.592 199.944 218.44 198.807 217.286C182.858 201.088 158.203 197.532 138.253 208.328C120.393 217.994 109.817 236.94 110.587 257.306C111.409 279.042 125.111 298.378 145.761 305.618C169.686 314.008 198.946 304.192 209.934 279.076L159.442 279.024C157.602 279.024 155.701 277.236 156.618 275.288V275.29Z" fill="white"/>
  <path d="M358.16 169.438C398.032 169.438 430.168 201.572 430.168 241.446V265.556C430.166 305.43 398.032 337.564 358.16 337.564H333.516C293.644 337.564 261.51 305.43 261.51 265.556V241.446C261.51 201.572 293.644 169.438 333.516 169.438H358.16ZM314.16 209.25C311.952 208.006 308.294 211.658 309.54 215.088L321.418 246.768C323.276 251.882 323.424 257.462 321.838 262.668L311.604 296.23C310.56 299.658 314.238 302.604 317.354 300.834L391.464 258.172C394.168 256.636 394.132 252.726 391.4 251.24L314.16 209.25Z" fill="white"/>
</svg>
